<?xml version="1.0" encoding="utf-8"?>
<!-- Generator: Adobe Illustrator 27.5.0, SVG Export Plug-In . SVG Version: 6.00 Build 0)  -->
<svg version="1.1" xmlns="http://www.w3.org/2000/svg" xmlns:xlink="http://www.w3.org/1999/xlink" x="0px" y="0px"
	 viewBox="0 0 750 500" style="enable-background:new 0 0 750 500;" xml:space="preserve">
<g id="Background_Simple">
	<g>
		<path style="fill:#92E3A9;" d="M713.57,188.035c0,0-16.016-81.682-130.532-132.133c-114.515-50.451-167.54-0.247-225.112,20.698
			s-88.804-7.885-184.901-21.498C76.928,41.487-6.356,176.824,20.871,282.53c27.227,105.706,87.288,143.344,218.62,167.369
			c131.332,24.024,209.011-55.256,301.904-40.841C634.29,423.472,744.801,342.591,713.57,188.035z"/>
		<path style="opacity:0.7;fill:#FFFFFF;" d="M713.57,188.035c0,0-16.016-81.682-130.532-132.133
			c-114.515-50.451-167.54-0.247-225.112,20.698s-88.804-7.885-184.901-21.498C76.928,41.487-6.356,176.824,20.871,282.53
			c27.227,105.706,87.288,143.344,218.62,167.369c131.332,24.024,209.011-55.256,301.904-40.841
			C634.29,423.472,744.801,342.591,713.57,188.035z"/>
	</g>
</g>
<g id="Floor">
	<g>
		
			<line style="fill:none;stroke:#263238;stroke-linecap:round;stroke-linejoin:round;stroke-miterlimit:10;" x1="532.393" y1="401.851" x2="707.067" y2="401.851"/>
		
			<line style="fill:none;stroke:#263238;stroke-linecap:round;stroke-linejoin:round;stroke-miterlimit:10;" x1="72.868" y1="401.851" x2="525.003" y2="401.851"/>
		
			<line style="fill:none;stroke:#263238;stroke-linecap:round;stroke-linejoin:round;stroke-miterlimit:10;" x1="49.354" y1="401.851" x2="65.478" y2="401.851"/>
	</g>
</g>
<g id="Plant_2">
	<g>
		<g>
			
				<line style="fill:none;stroke:#263238;stroke-width:2;stroke-miterlimit:10;" x1="647.728" y1="247.84" x2="661.653" y2="381.263"/>
			<g>
				<g>
					
						<line style="fill:none;stroke:#263238;stroke-width:2;stroke-miterlimit:10;" x1="659.409" y1="355.729" x2="653.096" y2="349.062"/>
					<path style="fill:#92E3A9;stroke:#263238;stroke-miterlimit:10;" d="M655.014,351.06c0,0,0.181-2.949-2.512-5.354
						c-1.62-1.447-10.148-5.034-10.957-2.031C640.665,346.941,649.393,353.356,655.014,351.06z"/>
					
						<line style="fill:none;stroke:#263238;stroke-width:0.5;stroke-miterlimit:10;" x1="655.014" y1="351.06" x2="646.896" y2="346.001"/>
				</g>
				<g>
					
						<line style="fill:none;stroke:#263238;stroke-width:2;stroke-miterlimit:10;" x1="660.992" y1="370.903" x2="654.68" y2="364.236"/>
					<path style="fill:#92E3A9;stroke:#263238;stroke-miterlimit:10;" d="M656.597,366.234c0,0,0.181-2.949-2.512-5.354
						c-1.62-1.447-10.148-5.034-10.957-2.031C642.248,362.115,650.976,368.53,656.597,366.234z"/>
					
						<line style="fill:none;stroke:#263238;stroke-width:0.5;stroke-miterlimit:10;" x1="656.597" y1="366.234" x2="648.479" y2="361.175"/>
				</g>
				<g>
					
						<line style="fill:none;stroke:#263238;stroke-width:2;stroke-miterlimit:10;" x1="655.544" y1="318.702" x2="649.232" y2="312.034"/>
					<path style="fill:#92E3A9;stroke:#263238;stroke-miterlimit:10;" d="M651.15,314.032c0,0,0.181-2.949-2.512-5.354
						c-1.62-1.447-10.148-5.034-10.957-2.031C636.8,309.913,645.528,316.328,651.15,314.032z"/>
					
						<line style="fill:none;stroke:#263238;stroke-width:0.5;stroke-miterlimit:10;" x1="651.15" y1="314.032" x2="643.032" y2="308.973"/>
				</g>
				<g>
					
						<line style="fill:none;stroke:#263238;stroke-width:2;stroke-miterlimit:10;" x1="657.128" y1="333.876" x2="650.815" y2="327.209"/>
					<path style="fill:#92E3A9;stroke:#263238;stroke-miterlimit:10;" d="M652.733,329.206c0,0,0.181-2.949-2.513-5.354
						c-1.62-1.447-10.148-5.034-10.957-2.031C638.384,325.087,647.112,331.502,652.733,329.206z"/>
					
						<line style="fill:none;stroke:#263238;stroke-width:0.5;stroke-miterlimit:10;" x1="652.733" y1="329.206" x2="644.615" y2="324.147"/>
				</g>
				<g>
					
						<line style="fill:none;stroke:#263238;stroke-width:2;stroke-miterlimit:10;" x1="652.972" y1="294.053" x2="646.659" y2="287.385"/>
					<path style="fill:#92E3A9;stroke:#263238;stroke-miterlimit:10;" d="M648.577,289.383c0,0,0.181-2.949-2.512-5.354
						c-1.62-1.447-10.148-5.034-10.957-2.031C634.228,285.264,642.956,291.679,648.577,289.383z"/>
					
						<line style="fill:none;stroke:#263238;stroke-width:0.5;stroke-miterlimit:10;" x1="648.577" y1="289.383" x2="640.459" y2="284.324"/>
				</g>
				<g>
					
						<line style="fill:none;stroke:#263238;stroke-width:2;stroke-miterlimit:10;" x1="650.388" y1="269.296" x2="644.076" y2="262.629"/>
					<path style="fill:#92E3A9;stroke:#263238;stroke-miterlimit:10;" d="M645.994,264.626c0,0,0.18-2.949-2.512-5.354
						c-1.62-1.447-10.148-5.034-10.957-2.031C631.644,260.507,640.372,266.922,645.994,264.626z"/>
					
						<line style="fill:none;stroke:#263238;stroke-width:0.5;stroke-miterlimit:10;" x1="645.994" y1="264.626" x2="637.875" y2="259.567"/>
				</g>
				<g>
					
						<line style="fill:none;stroke:#263238;stroke-width:2;stroke-miterlimit:10;" x1="658.347" y1="346.751" x2="663.147" y2="338.924"/>
					<path style="fill:#92E3A9;stroke:#263238;stroke-miterlimit:10;" d="M661.683,341.275c0,0-0.786-2.848,1.353-5.758
						c1.286-1.75,8.889-7.021,10.301-4.25C674.873,334.282,667.657,342.361,661.683,341.275z"/>
					
						<line style="fill:none;stroke:#263238;stroke-width:0.5;stroke-miterlimit:10;" x1="661.683" y1="341.275" x2="668.993" y2="334.288"/>
				</g>
				<g>
					
						<line style="fill:none;stroke:#263238;stroke-width:2;stroke-miterlimit:10;" x1="654.18" y1="306.82" x2="658.98" y2="298.993"/>
					<path style="fill:#92E3A9;stroke:#263238;stroke-miterlimit:10;" d="M657.516,301.344c0,0-0.786-2.848,1.353-5.758
						c1.287-1.751,8.889-7.021,10.301-4.25C670.706,294.351,663.49,302.43,657.516,301.344z"/>
					
						<line style="fill:none;stroke:#263238;stroke-width:0.5;stroke-miterlimit:10;" x1="657.516" y1="301.344" x2="664.826" y2="294.357"/>
				</g>
				<g>
					
						<line style="fill:none;stroke:#263238;stroke-width:2;stroke-miterlimit:10;" x1="652.349" y1="289.272" x2="657.149" y2="281.445"/>
					<path style="fill:#92E3A9;stroke:#263238;stroke-miterlimit:10;" d="M655.685,283.796c0,0-0.786-2.849,1.353-5.758
						c1.286-1.75,8.889-7.021,10.301-4.25C668.874,276.803,661.659,284.882,655.685,283.796z"/>
					
						<line style="fill:none;stroke:#263238;stroke-width:0.5;stroke-miterlimit:10;" x1="655.685" y1="283.796" x2="662.995" y2="276.809"/>
				</g>
				<g>
					
						<line style="fill:none;stroke:#263238;stroke-width:2;stroke-miterlimit:10;" x1="649.664" y1="263.547" x2="654.464" y2="255.72"/>
					<path style="fill:#92E3A9;stroke:#263238;stroke-miterlimit:10;" d="M653,258.07c0,0-0.786-2.848,1.353-5.758
						c1.287-1.75,8.889-7.021,10.301-4.25C666.19,251.077,658.974,259.156,653,258.07z"/>
					
						<line style="fill:none;stroke:#263238;stroke-width:0.5;stroke-miterlimit:10;" x1="653" y1="258.07" x2="660.31" y2="251.084"/>
					<path style="fill:#92E3A9;stroke:#263238;stroke-miterlimit:10;" d="M647.611,247.099c0,0-0.786-2.848,1.353-5.758
						c1.286-1.751,8.889-7.021,10.301-4.25C660.801,240.106,653.585,248.185,647.611,247.099z"/>
					
						<line style="fill:none;stroke:#263238;stroke-width:0.5;stroke-miterlimit:10;" x1="647.611" y1="247.099" x2="654.921" y2="240.112"/>
					<path style="fill:#92E3A9;stroke:#263238;stroke-miterlimit:10;" d="M648.035,247.4c0,0-2.915,0.482-5.584-1.949
						c-1.606-1.463-6.05-9.577-3.146-10.69C642.464,233.55,649.741,241.573,648.035,247.4z"/>
					
						<line style="fill:none;stroke:#263238;stroke-width:0.5;stroke-miterlimit:10;" x1="648.035" y1="247.4" x2="641.853" y2="239.398"/>
				</g>
			</g>
		</g>
		<g>
			
				<line style="fill:none;stroke:#263238;stroke-width:2;stroke-miterlimit:10;" x1="684.454" y1="266.214" x2="670.608" y2="399.646"/>
			<g>
				<g>
					
						<line style="fill:none;stroke:#263238;stroke-width:2;stroke-miterlimit:10;" x1="673.67" y1="374.197" x2="668.865" y2="366.373"/>
					<path style="fill:#92E3A9;stroke:#263238;stroke-miterlimit:10;" d="M670.331,368.723c0,0,0.784-2.849-1.356-5.757
						c-1.288-1.75-8.894-7.016-10.304-4.244C657.137,361.737,664.357,369.812,670.331,368.723z"/>
					
						<line style="fill:none;stroke:#263238;stroke-width:0.5;stroke-miterlimit:10;" x1="670.331" y1="368.723" x2="663.428" y2="362.101"/>
				</g>
				<g>
					
						<line style="fill:none;stroke:#263238;stroke-width:2;stroke-miterlimit:10;" x1="677.512" y1="337.167" x2="672.708" y2="329.343"/>
					<path style="fill:#92E3A9;stroke:#263238;stroke-miterlimit:10;" d="M674.173,331.693c0,0,0.784-2.849-1.356-5.757
						c-1.288-1.75-8.894-7.016-10.304-4.244C660.979,324.708,668.2,332.782,674.173,331.693z"/>
					
						<line style="fill:none;stroke:#263238;stroke-width:0.5;stroke-miterlimit:10;" x1="674.173" y1="331.693" x2="667.271" y2="325.071"/>
				</g>
				<g>
					
						<line style="fill:none;stroke:#263238;stroke-width:2;stroke-miterlimit:10;" x1="675.938" y1="352.342" x2="671.133" y2="344.518"/>
					<path style="fill:#92E3A9;stroke:#263238;stroke-miterlimit:10;" d="M672.599,346.868c0,0,0.784-2.849-1.356-5.757
						c-1.288-1.75-8.894-7.016-10.304-4.244C659.405,339.883,666.625,347.957,672.599,346.868z"/>
					
						<line style="fill:none;stroke:#263238;stroke-width:0.5;stroke-miterlimit:10;" x1="672.599" y1="346.868" x2="665.696" y2="340.246"/>
				</g>
				<g>
					
						<line style="fill:none;stroke:#263238;stroke-width:2;stroke-miterlimit:10;" x1="680.07" y1="312.517" x2="675.266" y2="304.693"/>
					<path style="fill:#92E3A9;stroke:#263238;stroke-miterlimit:10;" d="M676.731,307.042c0,0,0.784-2.849-1.356-5.757
						c-1.288-1.75-8.894-7.016-10.304-4.244C663.537,300.057,670.758,308.132,676.731,307.042z"/>
					
						<line style="fill:none;stroke:#263238;stroke-width:0.5;stroke-miterlimit:10;" x1="676.731" y1="307.042" x2="669.828" y2="300.42"/>
				</g>
				<g>
					
						<line style="fill:none;stroke:#263238;stroke-width:2;stroke-miterlimit:10;" x1="682.639" y1="287.758" x2="677.835" y2="279.934"/>
					<path style="fill:#92E3A9;stroke:#263238;stroke-miterlimit:10;" d="M679.3,282.284c0,0,0.784-2.849-1.356-5.757
						c-1.288-1.75-8.894-7.016-10.304-4.244C666.106,275.299,673.327,283.373,679.3,282.284z"/>
					
						<line style="fill:none;stroke:#263238;stroke-width:0.5;stroke-miterlimit:10;" x1="679.3" y1="282.284" x2="672.398" y2="275.662"/>
				</g>
				<g>
					
						<line style="fill:none;stroke:#263238;stroke-width:2;stroke-miterlimit:10;" x1="674.48" y1="365.193" x2="680.789" y2="358.522"/>
					<path style="fill:#92E3A9;stroke:#263238;stroke-miterlimit:10;" d="M678.872,360.521c0,0-0.182-2.949,2.509-5.356
						c1.619-1.448,10.145-5.04,10.956-2.038C693.219,356.393,684.494,362.814,678.872,360.521z"/>
					
						<line style="fill:none;stroke:#263238;stroke-width:0.5;stroke-miterlimit:10;" x1="678.872" y1="360.521" x2="687.464" y2="355.189"/>
				</g>
				<g>
					
						<line style="fill:none;stroke:#263238;stroke-width:2;stroke-miterlimit:10;" x1="678.624" y1="325.26" x2="684.932" y2="318.589"/>
					<path style="fill:#92E3A9;stroke:#263238;stroke-miterlimit:10;" d="M683.016,320.587c0,0-0.182-2.949,2.509-5.356
						c1.62-1.448,10.145-5.04,10.956-2.038C697.362,316.46,688.638,322.88,683.016,320.587z"/>
					
						<line style="fill:none;stroke:#263238;stroke-width:0.5;stroke-miterlimit:10;" x1="683.016" y1="320.587" x2="691.607" y2="315.255"/>
				</g>
				<g>
					
						<line style="fill:none;stroke:#263238;stroke-width:2;stroke-miterlimit:10;" x1="680.445" y1="307.711" x2="686.753" y2="301.04"/>
					<path style="fill:#92E3A9;stroke:#263238;stroke-miterlimit:10;" d="M684.836,303.038c0,0-0.182-2.949,2.509-5.356
						c1.619-1.448,10.145-5.04,10.956-2.038C699.183,298.911,690.459,305.331,684.836,303.038z"/>
					
						<line style="fill:none;stroke:#263238;stroke-width:0.5;stroke-miterlimit:10;" x1="684.836" y1="303.038" x2="693.428" y2="297.706"/>
				</g>
				<g>
					
						<line style="fill:none;stroke:#263238;stroke-width:2;stroke-miterlimit:10;" x1="683.114" y1="281.983" x2="689.423" y2="275.313"/>
					<path style="fill:#92E3A9;stroke:#263238;stroke-miterlimit:10;" d="M687.506,277.311c0,0-0.182-2.949,2.509-5.356
						c1.619-1.448,10.145-5.04,10.956-2.038C701.853,273.184,693.129,279.604,687.506,277.311z"/>
					
						<line style="fill:none;stroke:#263238;stroke-width:0.5;stroke-miterlimit:10;" x1="687.506" y1="277.311" x2="696.098" y2="271.979"/>
					<path style="fill:#92E3A9;stroke:#263238;stroke-miterlimit:10;" d="M684.492,265.465c0,0-0.182-2.949,2.509-5.356
						c1.619-1.448,10.145-5.04,10.956-2.038C698.839,261.338,690.115,267.758,684.492,265.465z"/>
					
						<line style="fill:none;stroke:#263238;stroke-width:0.5;stroke-miterlimit:10;" x1="684.492" y1="265.465" x2="693.084" y2="260.133"/>
					<path style="fill:#92E3A9;stroke:#263238;stroke-miterlimit:10;" d="M684.844,265.848c0,0-2.952-0.128-5.063-3.057
						c-1.27-1.762-3.949-10.617-0.878-11.109C682.244,251.147,687.714,260.496,684.844,265.848z"/>
					
						<line style="fill:none;stroke:#263238;stroke-width:0.5;stroke-miterlimit:10;" x1="684.844" y1="265.848" x2="680.443" y2="256.744"/>
				</g>
			</g>
		</g>
		
			<line style="fill:none;stroke:#263238;stroke-width:2;stroke-miterlimit:10;" x1="668.587" y1="211.881" x2="668.587" y2="380.613"/>
		<g>
			<g>
				
					<line style="fill:none;stroke:#263238;stroke-width:2;stroke-miterlimit:10;" x1="668.722" y1="355.243" x2="663.135" y2="347.957"/>
				<path style="fill:#92E3A9;stroke:#263238;stroke-miterlimit:10;" d="M664.836,350.142c0,0,0.486-2.915-1.943-5.586
					c-1.461-1.607-9.57-6.061-10.687-3.157C650.991,344.556,659.006,351.843,664.836,350.142z"/>
				
					<line style="fill:none;stroke:#263238;stroke-width:0.5;stroke-miterlimit:10;" x1="664.836" y1="350.142" x2="657.286" y2="344.268"/>
			</g>
			<g>
				
					<line style="fill:none;stroke:#263238;stroke-width:2;stroke-miterlimit:10;" x1="668.722" y1="323.534" x2="663.135" y2="316.247"/>
				<path style="fill:#92E3A9;stroke:#263238;stroke-miterlimit:10;" d="M664.836,318.433c0,0,0.486-2.915-1.943-5.586
					c-1.461-1.607-9.57-6.06-10.687-3.158C650.991,312.847,659.006,320.133,664.836,318.433z"/>
				
					<line style="fill:none;stroke:#263238;stroke-width:0.5;stroke-miterlimit:10;" x1="664.836" y1="318.433" x2="657.286" y2="312.559"/>
			</g>
			<g>
				
					<line style="fill:none;stroke:#263238;stroke-width:2;stroke-miterlimit:10;" x1="668.722" y1="286.305" x2="663.135" y2="279.019"/>
				<path style="fill:#92E3A9;stroke:#263238;stroke-miterlimit:10;" d="M664.836,281.205c0,0,0.486-2.915-1.943-5.586
					c-1.461-1.607-9.57-6.06-10.687-3.158C650.991,275.618,659.006,282.905,664.836,281.205z"/>
				
					<line style="fill:none;stroke:#263238;stroke-width:0.5;stroke-miterlimit:10;" x1="664.836" y1="281.205" x2="657.286" y2="275.33"/>
			</g>
			<g>
				
					<line style="fill:none;stroke:#263238;stroke-width:2;stroke-miterlimit:10;" x1="668.722" y1="261.522" x2="663.135" y2="254.236"/>
				<path style="fill:#92E3A9;stroke:#263238;stroke-miterlimit:10;" d="M664.836,256.422c0,0,0.486-2.915-1.943-5.586
					c-1.461-1.607-9.57-6.061-10.687-3.158C650.991,250.835,659.006,258.122,664.836,256.422z"/>
				
					<line style="fill:none;stroke:#263238;stroke-width:0.5;stroke-miterlimit:10;" x1="664.836" y1="256.422" x2="657.286" y2="250.547"/>
			</g>
			<g>
				
					<line style="fill:none;stroke:#263238;stroke-width:2;stroke-miterlimit:10;" x1="668.722" y1="236.631" x2="663.135" y2="229.344"/>
				<path style="fill:#92E3A9;stroke:#263238;stroke-miterlimit:10;" d="M664.836,231.53c0,0,0.486-2.915-1.943-5.586
					c-1.461-1.607-9.57-6.061-10.687-3.158C650.991,225.944,659.006,233.23,664.836,231.53z"/>
				
					<line style="fill:none;stroke:#263238;stroke-width:0.5;stroke-miterlimit:10;" x1="664.836" y1="231.53" x2="657.286" y2="225.656"/>
			</g>
			<g>
				
					<line style="fill:none;stroke:#263238;stroke-width:2;stroke-miterlimit:10;" x1="668.599" y1="364.926" x2="674.185" y2="357.639"/>
				<path style="fill:#92E3A9;stroke:#263238;stroke-miterlimit:10;" d="M672.484,359.825c0,0-0.486-2.915,1.943-5.586
					c1.461-1.608,9.57-6.061,10.687-3.157C686.329,354.239,678.314,361.526,672.484,359.825z"/>
				
					<line style="fill:none;stroke:#263238;stroke-width:0.5;stroke-miterlimit:10;" x1="672.484" y1="359.825" x2="680.48" y2="353.635"/>
			</g>
			<g>
				
					<line style="fill:none;stroke:#263238;stroke-width:2;stroke-miterlimit:10;" x1="668.599" y1="314.494" x2="674.185" y2="307.208"/>
				<path style="fill:#92E3A9;stroke:#263238;stroke-miterlimit:10;" d="M672.484,309.393c0,0-0.486-2.915,1.943-5.586
					c1.461-1.607,9.57-6.06,10.687-3.157C686.329,303.807,678.314,311.094,672.484,309.393z"/>
				
					<line style="fill:none;stroke:#263238;stroke-width:0.5;stroke-miterlimit:10;" x1="672.484" y1="309.393" x2="680.48" y2="303.203"/>
			</g>
			<g>
				
					<line style="fill:none;stroke:#263238;stroke-width:2;stroke-miterlimit:10;" x1="668.599" y1="289.603" x2="674.185" y2="282.316"/>
				<path style="fill:#92E3A9;stroke:#263238;stroke-miterlimit:10;" d="M672.484,284.502c0,0-0.486-2.915,1.943-5.586
					c1.461-1.607,9.57-6.061,10.687-3.157C686.329,278.916,678.314,286.203,672.484,284.502z"/>
				
					<line style="fill:none;stroke:#263238;stroke-width:0.5;stroke-miterlimit:10;" x1="672.484" y1="284.502" x2="680.48" y2="278.312"/>
			</g>
			<g>
				
					<line style="fill:none;stroke:#263238;stroke-width:2;stroke-miterlimit:10;" x1="668.599" y1="256.703" x2="674.185" y2="249.417"/>
				<path style="fill:#92E3A9;stroke:#263238;stroke-miterlimit:10;" d="M672.484,251.602c0,0-0.486-2.915,1.943-5.586
					c1.461-1.607,9.57-6.061,10.687-3.158C686.329,246.016,678.314,253.303,672.484,251.602z"/>
				
					<line style="fill:none;stroke:#263238;stroke-width:0.5;stroke-miterlimit:10;" x1="672.484" y1="251.602" x2="680.48" y2="245.412"/>
			</g>
			<g>
				
					<line style="fill:none;stroke:#263238;stroke-width:2;stroke-miterlimit:10;" x1="668.599" y1="230.838" x2="674.185" y2="223.551"/>
				<path style="fill:#92E3A9;stroke:#263238;stroke-miterlimit:10;" d="M672.484,225.737c0,0-0.486-2.915,1.943-5.586
					c1.461-1.607,9.57-6.061,10.687-3.158C686.329,220.151,678.314,227.437,672.484,225.737z"/>
				
					<line style="fill:none;stroke:#263238;stroke-width:0.5;stroke-miterlimit:10;" x1="672.484" y1="225.737" x2="680.48" y2="219.547"/>
				<path style="fill:#92E3A9;stroke:#263238;stroke-miterlimit:10;" d="M668.264,214.266c0,0-0.486-2.914,1.943-5.586
					c1.461-1.607,9.57-6.061,10.687-3.157C682.108,208.679,674.093,215.966,668.264,214.266z"/>
				
					<line style="fill:none;stroke:#263238;stroke-width:0.5;stroke-miterlimit:10;" x1="668.264" y1="214.266" x2="676.26" y2="208.075"/>
				<path style="fill:#92E3A9;stroke:#263238;stroke-miterlimit:10;" d="M668.654,214.609c0,0-2.95,0.177-5.352-2.518
					c-1.445-1.622-5.023-10.153-2.019-10.959C664.55,200.256,670.956,208.991,668.654,214.609z"/>
				
					<line style="fill:none;stroke:#263238;stroke-width:0.5;stroke-miterlimit:10;" x1="668.654" y1="214.609" x2="663.336" y2="206.009"/>
			</g>
		</g>
		<polygon style="fill:#263238;stroke:#263238;stroke-miterlimit:10;" points="675.529,401.896 657.659,401.896 655.426,379.246 
			677.763,379.246 		"/>
	</g>
</g>
<g id="Plant_1">
	<g>
		<polyline style="fill:none;stroke:#263238;stroke-linecap:round;stroke-linejoin:round;stroke-miterlimit:10;" points="
			149.517,111.337 147.421,101.5 131.691,101.5 126.448,126.112 152.665,126.112 150.273,114.887 		"/>
		<g>
			
				<line style="fill:none;stroke:#263238;stroke-linecap:round;stroke-linejoin:round;stroke-miterlimit:10;" x1="138.848" y1="101.144" x2="138.848" y2="66.524"/>
			
				<line style="fill:none;stroke:#263238;stroke-linecap:round;stroke-linejoin:round;stroke-miterlimit:10;" x1="138.851" y1="84.515" x2="152.893" y2="72.345"/>
			<path style="fill:none;stroke:#263238;stroke-linecap:round;stroke-linejoin:round;stroke-miterlimit:10;" d="M138.851,75.934
				c0,0-3.589-3.589-3.745-9.985c-0.156-6.397,4.213-12.014,4.213-12.014s3.745,6.709,3.901,12.794
				C143.375,72.813,138.851,75.934,138.851,75.934z"/>
			<path style="fill:none;stroke:#263238;stroke-linecap:round;stroke-linejoin:round;stroke-miterlimit:10;" d="M146.808,77.026
				c0,0-0.78-4.681,2.808-7.489c3.589-2.808,12.326-1.404,12.326-1.404s-2.496,5.149-5.773,8.113
				C152.893,79.21,148.212,78.898,146.808,77.026z"/>
			<g>
				
					<line style="fill:none;stroke:#263238;stroke-linecap:round;stroke-linejoin:round;stroke-miterlimit:10;" x1="138.695" y1="97.621" x2="129.177" y2="88.918"/>
				<path style="fill:none;stroke:#263238;stroke-linecap:round;stroke-linejoin:round;stroke-miterlimit:10;" d="M133.39,93.216
					c0,0,1.872-3.907,0-6.772c-1.872-2.865-11.234-2.865-11.234-2.865s0.156,7.553,3.589,9.767
					C129.177,95.56,133.39,93.216,133.39,93.216z"/>
			</g>
			<g>
				
					<line style="fill:none;stroke:#263238;stroke-linecap:round;stroke-linejoin:round;stroke-miterlimit:10;" x1="139.007" y1="87.011" x2="131.726" y2="77.82"/>
				<path style="fill:none;stroke:#263238;stroke-linecap:round;stroke-linejoin:round;stroke-miterlimit:10;" d="M134.846,81.347
					c0,0,1.387-3.206,0-5.558c-1.387-2.351-8.321-2.351-8.321-2.351s0.116,6.199,2.658,8.016
					C131.726,83.271,134.846,81.347,134.846,81.347z"/>
			</g>
			<path style="fill:none;stroke:#263238;stroke-linecap:round;stroke-linejoin:round;stroke-miterlimit:10;" d="M139.526,85.329
				c0,0-0.455,5.021,2.322,7.774c2.776,2.753,11.746,0.074,11.746,0.074s-2.739-8.626-6.787-10.186
				C142.759,81.433,139.526,85.329,139.526,85.329z"/>
			
				<line style="fill:none;stroke:#263238;stroke-linecap:round;stroke-linejoin:round;stroke-miterlimit:10;" x1="139.526" y1="85.329" x2="146.652" y2="89.508"/>
		</g>
	</g>
</g>
<g id="Blackboard">
	<g>
		
			<rect x="307.112" y="152.312" style="fill:none;stroke:#263238;stroke-linecap:round;stroke-linejoin:round;stroke-miterlimit:10;" width="336.118" height="175.798"/>
		
			<rect x="307.112" y="328.11" style="fill:none;stroke:#263238;stroke-linecap:round;stroke-linejoin:round;stroke-miterlimit:10;" width="336.118" height="5.205"/>
	</g>
</g>
<g id="Drawing">
	<g>
		<g>
			<polyline style="fill:none;stroke:#263238;stroke-linecap:round;stroke-linejoin:round;stroke-miterlimit:10;" points="
				202.566,174.614 200.934,158.156 220.133,156.256 221.354,161.046 228.464,159.236 227.523,155.516 248.824,153.406 
				254.883,214.596 207.003,219.346 203.127,180.271 			"/>
			<polygon style="fill:none;stroke:#263238;stroke-linecap:round;stroke-linejoin:round;stroke-miterlimit:10;" points="
				228.464,159.236 221.354,161.046 220.133,156.256 218.404,149.406 225.514,147.606 227.523,155.516 			"/>
		</g>
		<polyline style="fill:none;stroke:#263238;stroke-linecap:round;stroke-linejoin:round;stroke-miterlimit:10;" points="
			209.879,212.682 215.975,190.866 230.092,208.191 238.113,174.182 250.946,206.587 		"/>
		<path style="fill:none;stroke:#263238;stroke-linecap:round;stroke-linejoin:round;stroke-miterlimit:10;" d="M228.808,173.22
			c0,0-4.492-4.813-7.7-2.567c-3.208,2.246-2.887,5.775-2.887,5.775s-4.813-3.208-6.417-0.962c-1.604,2.246-1.604,4.813-1.604,4.813
			s-2.246,0.321-3.208,2.246c-0.962,1.925,0.642,2.567,2.567,2.567s4.492-1.925,4.492-1.925s4.813,3.208,7.7,1.925
			c2.888-1.283,4.171-4.813,4.171-4.813s6.096,1.604,7.379-0.963C234.583,176.749,232.658,172.578,228.808,173.22z"/>
		<path style="fill:none;stroke:#263238;stroke-linecap:round;stroke-linejoin:round;stroke-miterlimit:10;" d="M243.497,160.383
			c0,0-2.717-2.911-4.658-1.553c-1.941,1.359-1.747,3.494-1.747,3.494s-2.911-1.941-3.882-0.582
			c-0.971,1.359-0.971,2.911-0.971,2.911s-1.359,0.194-1.941,1.359c-0.582,1.165,0.388,1.553,1.553,1.553s2.717-1.165,2.717-1.165
			s2.911,1.941,4.658,1.165c1.747-0.776,2.523-2.911,2.523-2.911s3.688,0.97,4.464-0.582
			C246.991,162.518,245.827,159.995,243.497,160.383z"/>
	</g>
</g>
<g id="Shelf">
	<g>
		
			<rect x="103.961" y="125.932" style="fill:none;stroke:#263238;stroke-linecap:round;stroke-linejoin:round;stroke-miterlimit:10;" width="159.372" height="275.997"/>
		
			<rect x="106.952" y="131.461" style="fill:none;stroke:#263238;stroke-linecap:round;stroke-linejoin:round;stroke-miterlimit:10;" width="153.39" height="270.468"/>
		
			<rect x="181.483" y="131.461" style="fill:none;stroke:#263238;stroke-linecap:round;stroke-linejoin:round;stroke-miterlimit:10;" width="4.328" height="270.468"/>
		<path style="fill:none;stroke:#263238;stroke-linecap:round;stroke-linejoin:round;stroke-miterlimit:10;" d="M179.769,272.028
			c0-3.209-2.602-5.811-5.811-5.811c-3.21,0-5.811,2.602-5.811,5.811c0,3.21,2.602,5.811,5.811,5.811
			C177.167,277.839,179.769,275.237,179.769,272.028z"/>
		<path style="fill:none;stroke:#263238;stroke-linecap:round;stroke-linejoin:round;stroke-miterlimit:10;" d="M199.624,272.028
			c0-3.209-2.602-5.811-5.811-5.811c-3.21,0-5.811,2.602-5.811,5.811c0,3.21,2.602,5.811,5.811,5.811
			C197.022,277.839,199.624,275.237,199.624,272.028z"/>
	</g>
</g>
<g id="Earth_Globe">
	<g>
		<path style="fill:none;stroke:#263238;stroke-width:4;stroke-linecap:round;stroke-linejoin:round;stroke-miterlimit:10;" d="
			M571.627,383.304c2.994,0.464,6.062,0.704,9.186,0.704c30.566,0,55.749-23.013,59.176-52.654c0.264-2.271,0.4-4.58,0.4-6.919
			c0-18.715-8.627-35.413-22.122-46.335c-7.575-6.13-16.68-10.439-26.656-12.265L571.627,383.304z"/>
		<path style="fill:#92E3A9;stroke:#263238;stroke-linecap:round;stroke-linejoin:round;stroke-miterlimit:10;" d="M613.08,284.517
			c-8.817-7.134-20.039-11.407-32.267-11.407c-2.167,0-4.302,0.134-6.399,0.394c-4.57,0.57-8.957,1.738-13.071,3.428
			c-0.257,0.105-0.511,0.21-0.765,0.321c-0.283,0.12-0.564,0.245-0.841,0.368c-1.51,0.683-2.982,1.434-4.407,2.252l-2.862,1.767
			c-0.222,0.149-0.444,0.298-0.663,0.45c-5.563,3.817-10.335,8.703-14.021,14.359c-5.245,8.048-8.294,17.659-8.294,27.986
			c0,28.345,22.977,51.322,51.322,51.322c26.333,0,48.028-19.826,50.981-45.362c0.228-1.957,0.345-3.945,0.345-5.96
			C632.138,308.311,624.706,293.926,613.08,284.517z M587.991,283.167c-0.178,0.298-3.639,1.192-4.056,1.253
			c-0.418,0.058-0.537,2.088-0.657,2.327c-0.12,0.237-2.567,0.835-2.865,0.835c-0.298,0-2.266,2.804-2.266,2.804
			s0.12,1.133,0.058,1.91c-0.058,0.774-1.253,1.907-1.729,2.325c-0.479,0.418-2.088-1.133-2.088-1.133l-0.777-1.729l-0.715-4.953
			c0,0,0.418-0.955,0.835-1.311c0.418-0.359,0.777-0.599,1.194-0.897c0.418-0.298,0.237-0.774,0.298-1.075
			c0.058-0.298-0.537-0.716-0.537-0.716s-0.894-0.12-0.894-0.596c0-0.479,1.013-0.955,1.013-0.955s-0.178-0.537-0.657-0.596
			c-0.476-0.061,1.314-3.639,1.194-3.94c-0.12-0.298-1.194-0.596-1.373-1.072c-0.178-0.479,1.373-0.955,1.373-0.955
			s0.298-0.24,0.178-0.479c-0.12-0.237,2.088-0.955,2.088-0.955s3.221-0.117,3.878,0.061c0.657,0.178,1.431,0.178,1.91,0.537
			c0.476,0.356,2.088,1.311,3.28,2.386C587.871,277.321,588.169,282.869,587.991,283.167z"/>
		
			<path style="fill:#FFFFFF;stroke:#263238;stroke-width:0.5;stroke-linecap:round;stroke-linejoin:round;stroke-miterlimit:10;" d="
			M552.687,331.073l-1.63-1.343l-2.085,0.029l-0.917,0.888l0.429,0.312l1.171-0.742l2.401,1.857l2.745,0.172l0.371-0.572
			L552.687,331.073z M557.316,331.733l-1.457,0.312l0.4,1.402l-1.373-0.088l-0.313,0.972l2.514-0.114l0.342-0.686l1.373,0.228
			l0.201-0.999L557.316,331.733z M616.958,317.832l-1.282-0.056l-0.353,0.546l1.145,0.435l0.298,0.573l0.383,0.219L616.958,317.832z
			 M613.524,315.241l-0.984-0.327l0.301,1.446l0.082,0.628l-0.137,0.19l0.683,0.219l0.517-0.683L613.524,315.241z M613.141,313.197
			l-0.409,0.383l0.19,0.736l0.628,0.134L613.141,313.197z M601.892,300.587l-1.849-0.537l-0.537,1.253l0.716,1.075l-0.657,0.955
			c0,0,0.359,0.359,0.537,0.537c0.178,0.178,1.849-0.537,1.849-0.537L601.892,300.587z M605.948,302.377l-1.013-2.625l-1.492-0.835
			l0.359-1.551l-1.612-0.298l0.657-1.194l-1.434,0.181l-0.654,1.431l0.715,1.849l0.596-0.059l1.67,1.79l-0.12,1.072l-0.774-0.117
			l-0.181,1.849l1.136,0.356l-1.253,0.718l0.476,1.37l1.849-1.37l1.79,0.117l0.599-2.205L605.948,302.377z M630.529,325.763
			l0.061,2.625l1.203,2.006c0.228-1.957,0.345-3.945,0.345-5.96c0-16.123-7.432-30.509-19.058-39.918l-0.091,1.095l2.266,1.852
			l1.194,3.759l-3.341-1.91l-0.599-1.612c0,0,0.599-0.596,0.657-0.774c0.061-0.178-3.283-3.043-3.283-3.043l-4.772-1.732
			l-0.537,1.852l2.149,6.203l-1.253,2.389l1.79,4.234l1.311,0.298l0.835-1.67l2.745,4.296l1.133-0.537l-1.133-2.325l0.476-1.852
			l-2.208-2.147l-0.418-4.833l1.194,0.178l1.431,5.131l1.852,2.328l2.088-1.311l0.356,1.67l-1.013,0.418
			c0,0,1.013,1.907,1.075,2.088c0.058,0.178-0.897,0.835-0.897,0.835l-0.058,2.208l-4.594,0.418l-1.253-4.059l-1.194,0.479
			l0.893,3.58l-1.133,0.298l-0.476,1.968l-4.118,3.043l1.434,1.133l0.418,4.056l-4.775-0.178l-0.24,3.221l-0.178,1.67l2.088,0.657
			c0,0,0,0.537,0.178,0.715c0.181,0.178,2.149,0.24,2.149,0.24l0.596-0.479h1.016l1.191-1.729l-0.596-1.314l2.146-1.191l0.061-1.492
			l1.551-0.058c0,0,0.894-0.718,1.075-0.777c0.178-0.058,2.325,1.612,2.325,1.612l1.492,1.551l0.596,1.072l0.599,1.253l0.12,0.897
			l0.774-0.476l-0.356-1.434l0.835-0.356l-0.061-0.599l-1.013-0.654l-1.67-2.088l-1.373-1.554l0.657-0.774l1.013,0.418l3.341,3.341
			l0.359,2.445l0.237,1.79l0.301,1.075l0.774-0.835c0,0,0.596-0.24,0.596-0.476c0-0.24-0.952-1.553-0.952-1.553l0.356-1.133h0.835
			l0.359,0.777l0.835-1.195l-0.537-1.489l0.418-3.283l1.075,0.178l0.117,1.492l0.599,0.058l0.058-1.729l1.075-0.359l0.418,0.599
			l-0.657,1.311l1.968,2.923c0,0,0.298,0.777,0.12,0.955c-0.178,0.178-0.356,0.476-0.537,0.418
			c-0.178-0.059-0.894-0.359-0.894-0.359l-0.537-0.534l-1.133,0.178l-0.657,0.657c0,0-0.537,0.298-0.774,0.418
			c-0.239,0.117-0.599,0.596-0.599,0.596l-0.058,0.715l0.476,1.612v0.476h0.896l0.596,0.596c0,0,0.716,0.24,0.894,0.301
			c0.181,0.059,0.835-0.835,0.835-0.835l0.418,0.774l-0.654,3.82c0,0-1.253,0.058-1.434,0.058c-0.178,0-1.551,0.657-1.551,0.657
			l-2.386-2.328l-0.835,0.24l-0.359,1.968l-0.178,0.537c0,0-1.609-1.194-1.79-1.194c-0.178,0-0.774-1.551-0.774-1.551l-2.804-1.431
			l0.716-0.955l-0.298-2.03l-1.554,0.359l-7.336,1.373l-1.016-0.418l-2.266,2.386l-1.013,0.178l-0.12,2.745l-2.625,1.968
			l-1.91,2.984l-1.075,1.849l0.061,6.442l3.697,4.833l8.236-0.12l1.551,0.835l1.133,0.24l-1.253,3.461c0,0,0.893,4.118,1.311,4.652
			c0.417,0.537-4.532,6.264-4.532,6.264s-0.596,2.149-0.596,2.328c0,0.181,0,0.479,0,0.479l-3.7,5.368l0.894-0.059l5.192-1.79
			l1.67-0.894c0,0,1.968-2.865,2.146-2.923c0.178-0.061,3.461-3.043,3.461-3.043l1.91-0.897l1.192-1.79l2.03-4.234l5.251-5.011
			l1.609-2.506l0.955-3.104l-2.088,0.715v-7.575l-0.955-5.309l0.24-1.612l0.835-0.058l0.657,0.418l0.418,7.038l-0.12,4.416
			l0.955,1.253l2.923-7.339l-0.894-3.28l0.117-3.043L630.529,325.763z M593.3,287.761v-1.373h-1.91l-0.178,0.777l-2.506-0.418
			l-0.476,1.072l1.609,0.835l-0.716,0.777l2.865,1.133l2.506-1.849L593.3,287.761z M571.287,305.362l-2.03,0.596l-0.715-0.715
			l0.12-1.133l-1.671,0.715l-1.492,2.684l1.013,1.194l1.732-1.253l-0.24,1.37l1.013,0.301l0.479-1.136l0.596,1.075l1.91-1.968
			L571.287,305.362z M556.431,291.04l-0.599,0.897h0.716l1.136-0.715L556.431,291.04z M557.564,288.237l-1.492,0.12l-1.551,1.671
			l1.133,0.897l1.311-1.016l0.537,0.599l0.777-0.599L557.564,288.237z M567.169,278.156l-0.359,0.596l1.253,0.894l0.955-1.311
			L567.169,278.156z M567.169,283.883l1.253-0.835v-1.372l-1.013-0.537l0.237-0.774l-2.208-0.599l0.359-1.609l-2.03,0.774
			l-2.622,2.803l0.715,0.719l1.671-0.301l1.072,1.314c0,0-0.418,2.684-0.596,2.803c-0.178,0.12-1.191,1.075-1.431,1.253
			c-0.24,0.178-1.075,0.657-1.075,0.657l-1.968,0.12l-0.418,0.894l2.745-0.12l1.311,3.522h1.612l-0.599-1.79l1.253-0.181
			l0.835-1.489l-0.654-0.897c0,0,0.237-1.191,0.298-1.431c0.058-0.239,0.955-0.12,0.955-0.12l0.417,1.612l1.373-1.492l0.534-1.372
			L567.169,283.883z M555.237,281.555l0.094-1.682l-2.862,1.767l0.383,0.812l-0.777,0.893l0.061,0.897l1.253-0.657l1.253,0.476
			c0,0,1.551-0.356,1.729-0.418c0.178-0.058,0.178-2.147,0.178-2.147L555.237,281.555z M582.025,350.286l-2.208-1.075l-7.578-2.982
			c0,0,0.181-1.492,0.418-1.551c0.24-0.061-3.758-2.745-3.758-2.745l-2.266,0.178l-1.311-1.075l-2.447-1.551l-1.014,0.538
			c0,0-0.835-0.835-1.075-0.894c-0.24-0.061-0.955-0.061-0.955-0.061l-0.955-0.537l-1.014,0.418l0.12,1.492l-0.896-0.178l0.12-2.328
			l-0.894,0.061c0,0-0.479,0.534-0.537,0.716c-0.061,0.178-1.195,0.058-1.195,0.058l-0.654,1.373l-1.373-0.716l-1.554,0.476
			l-1.191-1.311l-0.479-3.283l-2.742,0.181l0.476-4.415l-2.027,0.12l-0.239,1.67l-0.835,0.835l-1.852,0.178l-1.133-2.447
			l-0.356-5.011l2.208-1.91l0.894,0.359l1.194,0.476v-1.192l1.907-0.298l0.718,0.476l0.835-0.239l0.894,1.194l-0.058,1.431
			l0.715,1.612l0.835-0.24l-1.372-5.011l4.118-3.279c0,0-0.12-1.434-0.181-1.612c-0.058-0.178,0.657-3.043,0.657-3.043l1.849-0.777
			l1.314-0.774v-0.479l0.298-1.431l1.133-0.835l0.777-0.657l1.072-0.534l0.835,0.418l-0.955,1.37l0.955,0.418l1.136-1.609
			l2.684-1.314l-0.955-0.894l-1.849,1.311l-0.777-1.79l0.596-1.253h-0.835l-3.102,2.328l-1.133-0.657l3.58-2.444
			c0,0,2.862-0.537,4.056-0.537c1.191,0,1.968-0.777,1.968-0.777l2.146-1.551l-0.417-2.146l-2.506-1.314
			c0,0,0.418-0.894,0.479-1.311c0.059-0.418-1.133-3.998-1.133-3.998s-2.567,2.745-2.804,2.745c-0.24,0-1.016-0.596-1.016-0.596
			s0.777-2.807,0.716-2.984c-0.058-0.178-1.551-1.729-1.968-1.79c-0.418-0.058-1.253,0.298-1.492,0.359
			c-0.237,0.059-0.894,3.28-0.894,3.28s-0.716,0.479-1.013,0.718c-0.298,0.236,0.12,2.923,0.12,3.279
			c0,0.359-2.506,0.955-2.506,0.955l-0.359,3.878l-1.612-0.476c0,0,0.599-3.224,0.061-3.283c-0.537-0.061-3.759-2.923-3.759-2.923
			s0.058-2.328,0.237-2.328c0.181,0,3.402-3.282,3.642-3.341c0.237-0.058,4.115-4.234,4.115-4.234l2.208-0.181l1.612-1.013
			l1.431-1.91l-1.729-1.133l-2.389,2.266l0.417-0.894l-0.356-1.79l2.745-1.492l0.537-1.431l-3.163,0.359l2.923-2.149l-0.327-0.543
			l-0.032-0.053l-0.809,0.421l-3.426,1.787l0.237,1.551l3.043-0.418l-2.266,1.075l-0.239,1.729l-1.013,1.075l-1.075,0.715
			l-2.803-0.418l-0.894,1.133l-1.016-0.356l1.732-2.985l-0.21-0.421c-5.563,3.817-10.335,8.703-14.021,14.359l-0.625,2.17
			l-0.298,0.835l-1.492,3.163l-0.24,3.998l-2.027,5.487l-0.718,7.099l0.418,1.79l0.061,2.208l2.386,6.504l0.955,0.476l-2.625-6.921
			l0.716-0.117l0.835,1.729l0.777,2.506c0,0,3.341,6.743,3.697,7.041c0.359,0.298,1.075,1.551,1.075,1.551l2.506-0.596l0.955,1.551
			l3.163,0.537l1.729,2.923l3.461,0.955l0.359-0.599l1.253,0.537l0.657,2.625l-1.136,3.221l1.194,1.91v1.91l0.777,0.657l2.982,3.221
			l3.758,2.027l6.025,12.292l2.865,2.684l2.506,1.671l3.101,1.314l0.12-0.835l-2.146-0.657c0,0-0.896-0.716-1.194-0.955
			c-0.298-0.239-0.894-0.657-0.894-0.657l-0.479-0.955l-0.476-0.476l-0.537-1.253l1.314-0.596l0.298-0.718l-1.016-1.551h1.79
			l1.314-4.714l3.998-2.266l0.237-4.056l2.923-3.939L582.025,350.286z M561.343,276.932l0.099,0.447c0,0,2.564-0.298,3.937-0.596
			c1.373-0.298,0.476-0.359,0.476-0.359s0.359-0.356,0.537-0.418c0.181-0.058,1.551,0,1.551,0l-1.609,1.253c0,0,0.476,0,1.192,0
			c0.718,0,1.253,0.061,1.253,0.061l0.537-0.181l0.537-0.654l0.537-0.359c0,0,1.848-0.774,2.327-0.955
			c0.38-0.143,1.329-1.232,1.697-1.667C569.844,274.073,565.458,275.241,561.343,276.932z M587.991,283.167
			c-0.178,0.298-3.639,1.192-4.056,1.253c-0.418,0.058-0.537,2.088-0.657,2.327c-0.12,0.237-2.567,0.835-2.865,0.835
			c-0.298,0-2.266,2.804-2.266,2.804s0.12,1.133,0.058,1.91c-0.058,0.774-1.253,1.907-1.729,2.325
			c-0.479,0.418-2.088-1.133-2.088-1.133l-0.777-1.729l-0.715-4.953c0,0,0.418-0.955,0.835-1.311
			c0.418-0.359,0.777-0.599,1.194-0.897c0.418-0.298,0.237-0.774,0.298-1.075c0.058-0.298-0.537-0.716-0.537-0.716
			s-0.894-0.12-0.894-0.596c0-0.479,1.013-0.955,1.013-0.955s-0.178-0.537-0.657-0.596c-0.476-0.061,1.314-3.639,1.194-3.94
			c-0.12-0.298-1.194-0.596-1.373-1.072c-0.178-0.479,1.373-0.955,1.373-0.955s0.298-0.24,0.178-0.479
			c-0.12-0.237,2.088-0.955,2.088-0.955s3.221-0.117,3.878,0.061c0.657,0.178,1.431,0.178,1.91,0.537
			c0.476,0.356,2.088,1.311,3.28,2.386C587.871,277.321,588.169,282.869,587.991,283.167z"/>
		<path style="fill:none;stroke:#263238;stroke-linecap:round;stroke-linejoin:round;stroke-miterlimit:10;" d="M578.394,372.848
			c0.339,0.017,0.679,0.03,1.02,0.04 M534.446,338.61c5.837,19.117,23.173,33.217,43.948,34.237 M532.376,326.285
			c0.116,3.098,0.523,6.122,1.195,9.045"/>
		<rect x="580.813" y="384.008" style="fill:#263238;" width="8.427" height="13.835"/>
		<rect x="554.263" y="397.115" style="fill:#263238;" width="61.938" height="4.736"/>
	</g>
</g>
<g id="Books">
	<g>
		<path style="fill:#FFFFFF;stroke:#263238;stroke-linecap:round;stroke-linejoin:round;stroke-miterlimit:10;" d="M145.476,384.123
			H88.312v17.268h57.163c4.768,0,8.634-3.866,8.634-8.634l0,0C154.11,387.988,150.244,384.123,145.476,384.123z"/>
		<path style="fill:none;stroke:#263238;stroke-width:2;stroke-linecap:round;stroke-linejoin:round;stroke-miterlimit:10;" d="
			M86.184,401.391h59.291c4.768,0,8.634-3.866,8.634-8.634l0,0c0-4.769-3.866-8.634-8.634-8.634H86.184"/>
		
			<line style="fill:none;stroke:#263238;stroke-linecap:round;stroke-linejoin:round;stroke-miterlimit:10;" x1="149.692" y1="385.883" x2="149.692" y2="400.271"/>
		
			<line style="fill:none;stroke:#263238;stroke-linecap:round;stroke-linejoin:round;stroke-miterlimit:10;" x1="149.838" y1="388.644" x2="139.955" y2="388.644"/>
		
			<line style="fill:none;stroke:#263238;stroke-linecap:round;stroke-linejoin:round;stroke-miterlimit:10;" x1="149.402" y1="392.423" x2="145.187" y2="392.423"/>
		
			<line style="fill:none;stroke:#263238;stroke-linecap:round;stroke-linejoin:round;stroke-miterlimit:10;" x1="149.692" y1="396.928" x2="137.194" y2="396.928"/>
		
			<line style="fill:none;stroke:#263238;stroke-linecap:round;stroke-linejoin:round;stroke-miterlimit:10;" x1="88.364" y1="393.586" x2="91.562" y2="393.586"/>
		
			<line style="fill:none;stroke:#263238;stroke-linecap:round;stroke-linejoin:round;stroke-miterlimit:10;" x1="91.707" y1="391.26" x2="108.565" y2="391.26"/>
		
			<line style="fill:none;stroke:#263238;stroke-linecap:round;stroke-linejoin:round;stroke-miterlimit:10;" x1="92.434" y1="396.492" x2="95.921" y2="396.492"/>
	</g>
	<g>
		<path style="fill:#FFFFFF;stroke:#263238;stroke-linecap:round;stroke-linejoin:round;stroke-miterlimit:10;" d="M93.713,365.811
			h57.163v17.268H93.713c-4.768,0-8.634-3.866-8.634-8.634l0,0C85.079,369.677,88.945,365.811,93.713,365.811z"/>
		<path style="fill:none;stroke:#263238;stroke-width:2;stroke-linecap:round;stroke-linejoin:round;stroke-miterlimit:10;" d="
			M153.005,383.079H93.713c-4.768,0-8.634-3.866-8.634-8.634l0,0c0-4.768,3.866-8.634,8.634-8.634h59.291"/>
		
			<line style="fill:none;stroke:#263238;stroke-linecap:round;stroke-linejoin:round;stroke-miterlimit:10;" x1="89.497" y1="367.572" x2="89.497" y2="381.959"/>
		
			<line style="fill:none;stroke:#263238;stroke-linecap:round;stroke-linejoin:round;stroke-miterlimit:10;" x1="89.351" y1="370.333" x2="99.233" y2="370.333"/>
		
			<line style="fill:none;stroke:#263238;stroke-linecap:round;stroke-linejoin:round;stroke-miterlimit:10;" x1="89.787" y1="374.112" x2="94.002" y2="374.112"/>
		
			<line style="fill:none;stroke:#263238;stroke-linecap:round;stroke-linejoin:round;stroke-miterlimit:10;" x1="89.497" y1="378.617" x2="101.995" y2="378.617"/>
		
			<line style="fill:none;stroke:#263238;stroke-linecap:round;stroke-linejoin:round;stroke-miterlimit:10;" x1="150.825" y1="375.274" x2="147.627" y2="375.274"/>
		
			<line style="fill:none;stroke:#263238;stroke-linecap:round;stroke-linejoin:round;stroke-miterlimit:10;" x1="147.482" y1="372.949" x2="130.624" y2="372.949"/>
		
			<line style="fill:none;stroke:#263238;stroke-linecap:round;stroke-linejoin:round;stroke-miterlimit:10;" x1="146.755" y1="378.181" x2="143.268" y2="378.181"/>
	</g>
</g>
<g id="Speech_Bubble">
	<g>
		<path style="fill:#263238;stroke:#263238;stroke-linecap:round;stroke-linejoin:round;stroke-miterlimit:10;" d="M369.568,175.826
			l-8.032-16.063c2.924-1.333,4.96-4.274,4.96-7.698v-35.358c0-4.674-3.789-8.463-8.463-8.463h-62.206
			c-4.674,0-8.463,3.789-8.463,8.463v35.358c0,4.674,3.789,8.463,8.463,8.463h47.152L369.568,175.826z"/>
		<path style="fill:#FFFFFF;stroke:#263238;stroke-linecap:round;stroke-linejoin:round;stroke-miterlimit:10;" d="M373.351,172.8
			l-8.031-16.063c2.924-1.333,4.96-4.274,4.96-7.698v-35.357c0-4.674-3.789-8.463-8.463-8.463H299.61
			c-4.674,0-8.463,3.789-8.463,8.463v35.357c0,4.674,3.789,8.463,8.463,8.463h47.152L373.351,172.8z"/>
		<g>
			<path style="fill:#263238;" d="M317.971,131.487c0-1.827-1.481-3.308-3.308-3.308s-3.308,1.481-3.308,3.308
				c0,1.827,1.481,3.308,3.308,3.308S317.971,133.314,317.971,131.487z"/>
			<path style="fill:#263238;" d="M334.407,131.487c0-1.827-1.481-3.308-3.308-3.308c-1.827,0-3.308,1.481-3.308,3.308
				c0,1.827,1.481,3.308,3.308,3.308C332.926,134.795,334.407,133.314,334.407,131.487z"/>
			<path style="fill:#263238;" d="M350.843,131.487c0-1.827-1.481-3.308-3.308-3.308c-1.827,0-3.308,1.481-3.308,3.308
				c0,1.827,1.481,3.308,3.308,3.308C349.361,134.795,350.843,133.314,350.843,131.487z"/>
		</g>
	</g>
</g>
<g id="Character_2">
	<g>
		<path style="fill:#263238;stroke:#263238;stroke-linecap:round;stroke-linejoin:round;stroke-miterlimit:10;" d="M398.372,340.528
			l-5.134,61.003h106.906c0,0-3.322-45.903-13.288-68.251L398.372,340.528z"/>
		<g>
			<path style="fill:#BDBDBD;stroke:#263238;stroke-linecap:round;stroke-linejoin:round;stroke-miterlimit:10;" d="
				M426.471,210.067l-1.897,7.168l-25.931,13.914c0,0-29.093,78.847-28.882,81.166c0.211,2.319,8.644,8.011,11.806,7.8
				c3.162-0.211,3.584-0.422,6.535-2.951c2.952-2.53,14.125-18.341,14.125-18.341l-5.481,46.169l16.444,25.298l8.433-16.655
				l6.114,17.709c0,0,32.045-13.914,45.537-20.239c13.492-6.325,18.341-11.595,18.341-11.595l-10.33-43.007l8.644-32.888
				c0,0,24.034,20.028,27.196,20.45c3.162,0.422,7.59-0.422,10.963-3.373c3.373-2.951,6.325-18.763,2.951-23.19
				c-3.373-4.427-32.045-37.737-34.364-39.845s-5.692-5.903-8.644-6.114c-2.951-0.211-22.979-1.687-24.877-1.897
				c-1.897-0.211-4.638-0.422-4.638-0.422l-4.427-6.535L426.471,210.067z"/>
			<g>
				<path style="fill:#FFFFFF;stroke:#263238;stroke-linecap:round;stroke-linejoin:round;stroke-miterlimit:10;" d="
					M425.206,202.267l1.265,7.8l7.59,7.59l-1.897,5.481c0,0,3.115,15.401,3.958,13.504s8.48-14.768,8.48-14.768l-3.162-5.903
					l12.649-13.282l-5.481-19.396L425.206,202.267z"/>
				<polygon style="fill:#263238;stroke:#263238;stroke-linecap:round;stroke-linejoin:round;stroke-miterlimit:10;" points="
					430.069,213.665 439.745,196.007 425.206,202.267 426.471,210.067 				"/>
			</g>
			<polyline style="fill:none;stroke:#263238;stroke-miterlimit:10;" points="477.016,254.009 489.928,263.616 471.742,260.337 			
				"/>
			<path style="fill:none;stroke:#263238;stroke-miterlimit:10;" d="M474.496,286.411c-1.47,1.996-2.896,3.61-4.16,4.513"/>
			<path style="fill:none;stroke:#263238;stroke-miterlimit:10;" d="M486.508,265.259c0,0-4.517,9.589-9.348,17.22"/>
			<path style="fill:none;stroke:#263238;stroke-miterlimit:10;" d="M474.555,279.674c0,0-4.395,7.734-7.031,10.02"/>
			<path style="fill:none;stroke:#263238;stroke-linecap:round;stroke-linejoin:round;stroke-miterlimit:10;" d="M432.799,240.266
				c0,0-2.416,17.214-4.228,22.65"/>
			<path style="fill:none;stroke:#263238;stroke-linecap:round;stroke-linejoin:round;stroke-miterlimit:10;" d="M426.155,305.799
				c0,0-5.735,39.138-5.134,43.487"/>
			
				<line style="fill:none;stroke:#263238;stroke-linecap:round;stroke-linejoin:round;stroke-miterlimit:10;" x1="435.5" y1="259.018" x2="433.403" y2="270.163"/>
			
				<line style="fill:none;stroke:#263238;stroke-linecap:round;stroke-linejoin:round;stroke-miterlimit:10;" x1="439.141" y1="239.662" x2="436.399" y2="254.241"/>
			
				<line style="fill:none;stroke:#263238;stroke-linecap:round;stroke-linejoin:round;stroke-miterlimit:10;" x1="426.463" y1="343.982" x2="425.853" y2="350.192"/>
			
				<line style="fill:none;stroke:#263238;stroke-linecap:round;stroke-linejoin:round;stroke-miterlimit:10;" x1="430.685" y1="300.967" x2="426.995" y2="338.568"/>
			<path style="fill:none;stroke:#263238;stroke-linecap:round;stroke-linejoin:round;stroke-miterlimit:10;" d="M481.13,221.92
				c1.726,0.125,3.354,0.297,4.821,0.528"/>
			<path style="fill:none;stroke:#263238;stroke-linecap:round;stroke-linejoin:round;stroke-miterlimit:10;" d="M453.033,222.448
				c0,0,13.237-1.119,24.477-0.719"/>
			<path style="fill:none;stroke:#263238;stroke-linecap:round;stroke-linejoin:round;stroke-miterlimit:10;" d="M410.574,230.991
				c-1.732,0.894-3.127,1.639-3.747,2.027"/>
			<path style="fill:none;stroke:#263238;stroke-linecap:round;stroke-linejoin:round;stroke-miterlimit:10;" d="M423.438,224.562
				c0,0-5.035,2.464-9.618,4.776"/>
		</g>
		<path style="fill:#263238;stroke:#263238;stroke-linecap:round;stroke-linejoin:round;stroke-miterlimit:10;" d="M398.643,159.892
			l-10.963-0.632c0,0-10.33-6.746-10.119-9.065c0.211-2.319,16.022-29.515,24.034-34.996c8.011-5.481,22.979-4.638,34.364-4.427
			c11.384,0.211,27.407,19.606,30.358,25.298c2.951,5.692,9.487,20.45,8.222,23.612c-1.265,3.162-12.86,14.336-12.86,14.336
			l4.216-0.843c0,0,0.843,3.795-3.584,8.854c-4.427,5.06-17.498,7.168-18.552,7.379s2.319-16.866,2.108-20.449
			c-0.211-3.584-15.812-13.703-23.401-14.336C414.876,153.989,398.643,159.892,398.643,159.892z"/>
		<g>
			<path style="fill:#FFFFFF;stroke:#263238;stroke-linecap:round;stroke-linejoin:round;stroke-miterlimit:10;" d="
				M452.838,149.381c-3.084-0.28-5.047,7.57-5.047,7.57l-2.243-3.645c0,0-4.059-0.003-10.095-0.864
				c2.149,1.555,3.886,2.805,3.886,2.805s-2.372,1.695-5.423,1.695s-14.234-7.456-14.234-7.456l6.439,5.762
				c0,0-3.656-0.626-10.845-1.017c-6.773-0.368-13.116-14.179-13.827-15.774c-0.903,3.287-2.441,9.372-2.441,12.724
				c0,4.745,2.711,8.473,2.711,8.473s-3.279-0.822-6.194-2.115c1.755,6.19,5.318,17.193,6.566,21.561
				c1.682,5.888,17.943,24.672,19.345,25.793c1.402,1.121,8.13,1.682,13.177-1.402c5.046-3.084,14.859-15.981,15.42-19.065
				c0.561-3.084,1.963-13.738,1.963-13.738s3.925-1.682,5.607-7.009C459.286,158.353,455.922,149.661,452.838,149.381z"/>
			<path style="fill:none;stroke:#263238;stroke-linecap:round;stroke-linejoin:round;stroke-miterlimit:10;" d="M417.155,181.572
				c0,0,2.676,1.784,4.639,1.427"/>
			<path style="fill:none;stroke:#263238;stroke-linecap:round;stroke-linejoin:round;stroke-miterlimit:10;" d="M416.263,188.173
				c0,0,5.531,2.498,9.278,1.427c3.747-1.07,7.315-4.639,8.921-7.315"/>
			<path style="fill:none;stroke:#263238;stroke-linecap:round;stroke-linejoin:round;stroke-miterlimit:10;" d="M421.972,190.314
				c0,0,2.676,2.855,4.996,1.963c2.319-0.892,2.855-4.639,2.855-4.639S426.076,190.136,421.972,190.314z"/>
			<path style="fill:#263238;" d="M412.524,170.151c0.537,1.43,0.337,2.828-0.447,3.122c-0.784,0.294-1.855-0.626-2.392-2.056
				c-0.537-1.43-0.337-2.828,0.447-3.122C410.916,167.801,411.987,168.721,412.524,170.151z"/>
			<path style="fill:#263238;" d="M427.325,167.834c0.537,1.43,0.337,2.828-0.447,3.122c-0.784,0.295-1.855-0.626-2.392-2.056
				c-0.537-1.43-0.337-2.828,0.447-3.122C425.717,165.484,426.788,166.404,427.325,167.834z"/>
			<path style="fill:none;stroke:#263238;stroke-linecap:round;stroke-linejoin:round;stroke-miterlimit:10;" d="M403.595,165.158
				c0,0,3.033-3.568,7.85-3.568"/>
			<path style="fill:none;stroke:#263238;stroke-linecap:round;stroke-linejoin:round;stroke-miterlimit:10;" d="M421.08,160.34
				c0,0,4.817-3.211,10.527,0"/>
		</g>
		<path style="fill:#FFFFFF;stroke:#263238;stroke-linecap:round;stroke-linejoin:round;stroke-miterlimit:10;" d="M379.984,279.674
			l1.055,11.777c0,0-10.898,13.711-12.129,15.82s-0.352,8.789,2.109,11.602c2.461,2.813,9.492,4.043,11.953,3.516
			c2.461-0.527,5.449-8.086,5.625-9.141c0.176-1.055,2.988-19.16,2.988-19.16l-10.195-16.172L379.984,279.674z"/>
		<g>
			<polygon style="fill:#92E3A9;stroke:#263238;stroke-linecap:round;stroke-linejoin:round;stroke-miterlimit:10;" points="
				371.898,262.447 401.605,311.666 442.738,292.33 414.085,246.451 			"/>
			<line style="fill:none;stroke:#263238;stroke-miterlimit:10;" x1="393.879" y1="283.628" x2="419.489" y2="273.099"/>
			<line style="fill:none;stroke:#263238;stroke-miterlimit:10;" x1="404.692" y1="289.603" x2="417.213" y2="284.197"/>
			<g>
				<path style="fill:#263238;" d="M386.374,275.979l-4.448-6.891l0.862-0.325l4.003,6.202l1.578-0.595l0.445,0.689L386.374,275.979
					z"/>
				<path style="fill:#263238;" d="M389.446,274.821l-4.448-6.891l0.846-0.319l4.448,6.891L389.446,274.821z"/>
				<path style="fill:#263238;" d="M391.969,273.87l-3.987-6.176l-1.044,0.394l-0.461-0.715l2.92-1.101l0.461,0.715l-1.014,0.382
					l3.987,6.176L391.969,273.87z"/>
				<path style="fill:#263238;" d="M394.439,272.939l-4.448-6.891l2.394-0.902l0.461,0.715l-1.532,0.578l1.472,2.28l1.242-0.468
					l0.439,0.681l-1.242,0.468l1.631,2.527l1.547-0.583l0.445,0.689L394.439,272.939z"/>
				<path style="fill:#263238;" d="M397.541,271.77l-4.448-6.891l1.242-0.468c0.412-0.155,0.792-0.222,1.14-0.202
					c0.348,0.021,0.674,0.141,0.977,0.361c0.304,0.221,0.596,0.549,0.878,0.986c0.172,0.267,0.303,0.519,0.393,0.756
					c0.09,0.238,0.128,0.453,0.113,0.645c-0.015,0.193-0.092,0.357-0.231,0.494l3.106,3.123l-0.831,0.313l-2.895-2.928l-0.671,0.253
					l2.087,3.233L397.541,271.77z M395.871,267.523l0.328-0.123c0.244-0.092,0.42-0.201,0.529-0.326
					c0.109-0.126,0.145-0.284,0.11-0.475c-0.035-0.191-0.148-0.434-0.338-0.729c-0.26-0.403-0.514-0.668-0.761-0.797
					c-0.247-0.129-0.567-0.12-0.958,0.028l-0.381,0.144L395.871,267.523z"/>
				<path style="fill:#263238;" d="M401.162,270.405l-3.137-7.385l0.831-0.313l5.767,6.394l-0.816,0.307l-1.402-1.629l-1.258,0.474
					l0.823,1.848L401.162,270.405z M400.817,267.52l1.029-0.388l-2.523-2.91L400.817,267.52z"/>
				<path style="fill:#263238;" d="M405.683,268.701l-3.987-6.176l-1.044,0.394l-0.461-0.715l2.92-1.101l0.461,0.715l-1.014,0.382
					l3.986,6.176L405.683,268.701z"/>
				<path style="fill:#263238;" d="M409.795,267.246c-0.447,0.169-0.854,0.199-1.221,0.09c-0.367-0.108-0.71-0.326-1.029-0.654
					c-0.319-0.327-0.634-0.732-0.945-1.215l-2.949-4.568l0.823-0.31l2.976,4.611c0.19,0.295,0.382,0.558,0.575,0.788
					c0.193,0.23,0.395,0.394,0.606,0.491c0.211,0.097,0.436,0.1,0.675,0.01c0.244-0.092,0.379-0.231,0.404-0.417
					c0.026-0.186-0.023-0.407-0.145-0.665c-0.122-0.257-0.278-0.533-0.468-0.828l-2.976-4.611l0.816-0.307l2.949,4.568
					c0.311,0.482,0.54,0.92,0.686,1.312c0.146,0.393,0.165,0.733,0.057,1.021C410.52,266.849,410.242,267.077,409.795,267.246z"/>
				<path style="fill:#263238;" d="M412.292,266.209l-4.448-6.891l1.243-0.468c0.412-0.155,0.791-0.222,1.14-0.202
					c0.348,0.021,0.674,0.141,0.977,0.361c0.303,0.221,0.596,0.549,0.878,0.986c0.172,0.267,0.303,0.519,0.393,0.756
					c0.09,0.237,0.128,0.453,0.113,0.645c-0.015,0.193-0.092,0.357-0.231,0.494l3.106,3.123l-0.831,0.313l-2.895-2.928l-0.671,0.253
					l2.087,3.233L412.292,266.209z M410.622,261.963l0.328-0.124c0.244-0.092,0.42-0.201,0.529-0.326
					c0.109-0.126,0.145-0.284,0.11-0.475c-0.035-0.191-0.148-0.434-0.338-0.729c-0.26-0.403-0.514-0.668-0.761-0.797
					c-0.247-0.129-0.567-0.12-0.958,0.028l-0.381,0.144L410.622,261.963z"/>
				<path style="fill:#263238;" d="M416.248,264.718l-4.448-6.891l2.394-0.902l0.461,0.715l-1.532,0.578l1.472,2.28l1.243-0.468
					l0.439,0.681l-1.243,0.468l1.631,2.527l1.547-0.583l0.445,0.689L416.248,264.718z"/>
			</g>
			<path style="fill:#FFFFFF;stroke:#263238;stroke-linecap:round;stroke-linejoin:round;stroke-miterlimit:10;" d="
				M371.898,262.447l-12.305-20.215c0,0,4.746,5.449,7.383,6.855c2.637,1.406,6.855,5.625,7.734,7.559
				c0.879,1.934,1.055,3.691,1.055,3.691s2.988-5.449,5.449-6.328c2.461-0.879,21.973-5.625,25.313-6.504
				c3.34-0.879,7.559-1.055,7.559-1.055L371.898,262.447z"/>
		</g>
		<g>
			<path style="fill:#FFFFFF;stroke:#263238;stroke-linecap:round;stroke-linejoin:round;stroke-miterlimit:10;" d="
				M376.468,274.048c0,0,0.176,4.395,1.055,4.746c0.879,0.352,9.141,2.285,9.492,1.582c0.352-0.703,1.758-2.813,0.527-4.043
				s-8.965-2.813-8.965-2.813S377.523,273.17,376.468,274.048z"/>
			<path style="fill:#FFFFFF;stroke:#263238;stroke-linecap:round;stroke-linejoin:round;stroke-miterlimit:10;" d="
				M379.984,279.674c0,0-0.527,4.219,0.352,4.922c0.879,0.703,7.031,0.176,8.438,0c1.406-0.176,3.516-2.285,2.285-3.34
				c-1.23-1.055-5.625-1.231-5.625-1.231L379.984,279.674z"/>
			<path style="fill:#FFFFFF;stroke:#263238;stroke-linecap:round;stroke-linejoin:round;stroke-miterlimit:10;" d="
				M382.269,284.771c0,0,0.527,4.922,1.582,5.449c1.055,0.527,8.086,0.352,8.965-0.352c0.879-0.703,1.934-2.637,0.527-3.164
				c-1.406-0.527-6.855-1.406-6.855-1.406l-1.934-0.527H382.269z"/>
			<path style="fill:#FFFFFF;stroke:#263238;stroke-linecap:round;stroke-linejoin:round;stroke-miterlimit:10;" d="
				M386.312,291.099c0,0,2.461,3.691,3.691,4.746c1.23,1.055,4.57,2.637,5.977,2.109c1.406-0.527,1.582-2.637,0-3.164
				c-1.582-0.527-4.219-2.109-4.219-2.109l-1.758-1.934L386.312,291.099z"/>
		</g>
		<g>
			<path style="fill:#FFFFFF;stroke:#263238;stroke-linecap:round;stroke-linejoin:round;stroke-miterlimit:10;" d="M478.07,198.989
				c0,0-4.043,1.055-4.395,2.637c-0.352,1.582,1.582,7.383,3.516,8.262c1.934,0.879,6.152,0.527,6.152,0.527L478.07,198.989z"/>
			<path style="fill:#FFFFFF;stroke:#263238;stroke-linecap:round;stroke-linejoin:round;stroke-miterlimit:10;" d="
				M495.297,189.146c0,0-3.516-5.977-5.801-12.832c-2.285-6.856-4.746-13.535-6.152-11.777c-1.406,1.758-1.23,11.602-0.527,14.063
				c0.703,2.461,3.516,12.48,3.516,12.48l-9.492,4.922c0,0,6.152,13.711,6.504,14.414c0.352,0.703,1.055,4.922,3.164,4.922
				c2.109,0,4.746-1.758,4.746-1.758s2.461,4.219,4.219,4.922c1.758,0.703,4.219,1.23,4.219,1.23s7.383,38.321,9.316,48.516
				s5.579,18.287,12.962,17.936c7.383-0.352,8.132-1.94,10.769-8.092c2.637-6.152,2.988-11.602,0.879-17.051
				c-2.109-5.449-25.137-45-26.543-47.637c-1.406-2.637-8.262-17.227-8.965-19.16C497.406,192.31,495.297,189.146,495.297,189.146z"
				/>
			<polyline style="fill:none;stroke:#263238;stroke-miterlimit:10;" points="480.004,202.329 480.707,198.989 491.43,193.364 			
				"/>
			<path style="fill:none;stroke:#263238;stroke-miterlimit:10;" d="M482.289,208.482c0,0,0.527-2.988,1.23-3.691
				c0.703-0.703,9.668-5.977,9.668-5.977"/>
			<line style="fill:none;stroke:#263238;stroke-miterlimit:10;" x1="486.332" y1="191.079" x2="490.727" y2="188.443"/>
			<path style="fill:none;stroke:#263238;stroke-miterlimit:10;" d="M491.254,213.579c0,0,1.582-2.285,1.055-3.516
				c-0.527-1.23-0.527-1.23-0.527-1.23"/>
			<line style="fill:none;stroke:#263238;stroke-miterlimit:10;" x1="489.32" y1="209.185" x2="494.066" y2="207.251"/>
		</g>
	</g>
</g>
<g id="Character_1">
	<g>
		<g>
			<path style="fill:#92E3A9;stroke:#263238;stroke-linecap:round;stroke-linejoin:round;stroke-miterlimit:10;" d="
				M250.085,323.111c0,0-32.518,17.653-33.911,20.672c-1.394,3.02-15.098,58.068-15.098,58.068h150.831c0,0,5.358-7.48,1.932-14.234
				c-8.653-17.058-24.388-51.397-25.904-54.09c-2.09-3.716-39.293-14.364-42.081-15.293
				C283.067,317.304,262.86,314.517,250.085,323.111z"/>
			<path style="fill:none;stroke:#263238;stroke-linecap:round;stroke-linejoin:round;stroke-miterlimit:10;" d="M239.168,401.618
				c0,0-16.491-48.08-13.239-41.809"/>
			
				<line style="fill:none;stroke:#263238;stroke-linecap:round;stroke-linejoin:round;stroke-miterlimit:10;" x1="236.148" y1="391.863" x2="229.413" y2="361.436"/>
			
				<line style="fill:#FFFFFF;stroke:#263238;stroke-linecap:round;stroke-linejoin:round;stroke-miterlimit:10;" x1="312.101" y1="355.397" x2="320.695" y2="401.618"/>
			<path style="fill:none;stroke:#263238;stroke-linecap:round;stroke-linejoin:round;stroke-miterlimit:10;" d="M326.15,383.414
				c0,0,6.428-7.169,13.844-6.922"/>
			<path style="fill:none;stroke:#263238;stroke-linecap:round;stroke-linejoin:round;stroke-miterlimit:10;" d="M327.633,376.739
				c0,0,6.428-3.956,12.608-3.214"/>
		</g>
		<path style="fill:#263238;stroke:#263238;stroke-linecap:round;stroke-linejoin:round;stroke-miterlimit:10;" d="M249.156,330.311
			c0,0,13.728,28.367,22.089,33.245c8.362,4.878,15.306-40.678,15.306-40.678L249.156,330.311z"/>
		<path style="fill:#FFFFFF;stroke:#263238;stroke-linecap:round;stroke-linejoin:round;stroke-miterlimit:10;" d="M256.821,334.957
			c0,0,10.116,22.048,15.226,21.119c5.11-0.929,10.788-26.925,10.788-26.925S269.363,340.067,256.821,334.957z"/>
		<g>
			<path style="fill:#FFFFFF;stroke:#263238;stroke-linecap:round;stroke-linejoin:round;stroke-miterlimit:10;" d="
				M234.267,299.585c0,0,9.758,25.742,11.945,29.275c2.187,3.533,13.292,10.263,20.694,11.441s13.292-1.514,18.171-9.422
				c4.879-7.908,4.038-14.133,4.543-17.33c0.505-3.197-3.197-21.536-3.197-21.536l-2.355-8.412l-25.91-4.206L234.267,299.585z"/>
			<path style="fill:#263238;stroke:#263238;stroke-linecap:round;stroke-linejoin:round;stroke-miterlimit:10;" d="
				M231.743,271.151l-6.225,16.488l5.889,16.32l4.711,1.682c1.514,1.514,4.374,1.178,4.374,1.178l5.889-13.796
				c0,0,0.841,7.739,4.374,10.6c3.533,2.86,7.908,4.879,7.908,4.879s2.019-4.879,3.028-6.562c1.009-1.682,3.702-8.412,4.038-8.917
				c0.337-0.505-1.009,12.955-1.009,13.46c0,0.505,1.682,0.336,10.599-6.225c8.917-6.562,9.59-10.095,9.59-10.095l2.692,10.431
				l0.841-15.142c0,0-4.038-14.301-7.571-18.171c-3.533-3.87-14.638-8.917-24.9-7.571
				C245.707,261.056,235.949,263.243,231.743,271.151z"/>
			<path style="fill:none;stroke:#263238;stroke-linecap:round;stroke-linejoin:round;stroke-miterlimit:10;" d="M250.923,318.26
				c0,0,5.72,3.028,10.263-1.683"/>
			<path style="fill:none;stroke:#263238;stroke-linecap:round;stroke-linejoin:round;stroke-miterlimit:10;" d="M272.459,313.213
				c0,0,5.72,2.355,10.768-3.028"/>
			<path style="fill:none;stroke:#263238;stroke-linecap:round;stroke-linejoin:round;stroke-miterlimit:10;" d="M265.224,325.158
				c0,0,2.355,1.682,4.543,1.178s3.365-3.028,3.365-3.028"/>
			<path style="fill:none;stroke:#263238;stroke-linecap:round;stroke-linejoin:round;stroke-miterlimit:10;" d="M260.513,329.869
				c0,0,5.72,1.851,9.422,1.178c3.702-0.673,5.72-3.028,7.739-6.562"/>
			<path style="fill:none;stroke:#263238;stroke-width:2;stroke-linecap:round;stroke-linejoin:round;stroke-miterlimit:10;" d="
				M248.231,315.905c0,0,5.047-2.86,12.282-3.701"/>
			<path style="fill:none;stroke:#263238;stroke-width:2;stroke-linecap:round;stroke-linejoin:round;stroke-miterlimit:10;" d="
				M270.103,309.68c0,0,5.72-3.533,11.777-3.197"/>
			<path style="fill:#FFFFFF;stroke:#263238;stroke-linecap:round;stroke-linejoin:round;stroke-miterlimit:10;" d="
				M236.959,306.315c0,0-4.038-3.87-5.889-0.168c-1.851,3.701,1.682,7.403,3.197,9.085c1.514,1.682,7.403,3.029,7.403,3.029
				L236.959,306.315z"/>
			<path style="fill:#FFFFFF;stroke:#263238;stroke-linecap:round;stroke-linejoin:round;stroke-miterlimit:10;" d="
				M286.423,292.014c0,0,1.514-6.057,3.702-2.692s3.197,5.384,2.355,10.431c-0.841,5.047-3.197,8.244-3.197,8.244L286.423,292.014z"
				/>
		</g>
		<g>
			<path style="fill:#FFFFFF;stroke:#263238;stroke-linecap:round;stroke-linejoin:round;stroke-miterlimit:10;" d="
				M308.272,361.092l-14.974,36.967l0.326,2.771l2.771-2.608l15.022-35.834c0.352-0.839-0.019-1.806-0.841-2.195l0,0
				C309.694,359.775,308.64,360.186,308.272,361.092z"/>
			<g>
				<path style="fill:#FFFFFF;stroke:#263238;stroke-linecap:round;stroke-linejoin:round;stroke-miterlimit:10;" d="
					M326.397,385.886c0,0-12.38-12.394-14.471-12.162c-2.09,0.232-17.188,7.897-17.188,7.897l-1.394,12.775
					c0,0,1.394,0.929,2.787-0.232c1.394-1.161,3.252-7.897,3.252-7.897l8.826-2.787c0,0-6.968,6.504-7.2,7.2
					s-5.11,8.826-4.181,9.523c0.929,0.697,3.252,0.232,3.252,0.232s0.929,0.929,2.787,1.161c1.858,0.232,4.878-1.394,4.878-1.394
					s0.929,0.929,2.09,0.697c1.161-0.232,6.504-3.252,6.504-3.252s6.271,4.878,8.594,4.645c2.323-0.232,7.433-0.697,7.433-0.697
					h17.42c0,0,6.039,0.465,7.433-4.413c1.394-4.878-5.253-13.627-11.292-15.253c-6.039-1.626-9.851,1.311-13.103,2.472
					C329.573,385.564,326.397,385.886,326.397,385.886z"/>
				
					<line style="fill:none;stroke:#263238;stroke-linecap:round;stroke-linejoin:round;stroke-miterlimit:10;" x1="324.004" y1="384.641" x2="332.366" y2="390.68"/>
				
					<line style="fill:none;stroke:#263238;stroke-linecap:round;stroke-linejoin:round;stroke-miterlimit:10;" x1="316.34" y1="397.648" x2="322.843" y2="393.468"/>
				<path style="fill:none;stroke:#263238;stroke-linecap:round;stroke-linejoin:round;stroke-miterlimit:10;" d="M313.815,385.024
					c0,0-7.532,8.01-8.01,8.608c-0.478,0.598-5.725,6.804-5.725,6.804"/>
				<path style="fill:none;stroke:#263238;stroke-linecap:round;stroke-linejoin:round;stroke-miterlimit:10;" d="M307.745,400.203
					c0,0,8.222-9.441,10.732-10.756"/>
			</g>
		</g>
		<g>
			<path style="fill:#FFFFFF;stroke:#263238;stroke-linecap:round;stroke-linejoin:round;stroke-miterlimit:10;" d="
				M260.085,400.831c0,0-4.728-4.728-7.662-5.38c-2.935-0.652-20.378,2.282-27.714,3.261c-7.336,0.978-22.497,1.793-22.497,1.793
				l-1.135,1.346h59.009V400.831z"/>
			<path style="fill:#FFFFFF;stroke:#263238;stroke-linecap:round;stroke-linejoin:round;stroke-miterlimit:10;" d="
				M260.085,400.831c0,0,4.728-4.728,7.662-5.38c2.934-0.652,20.378,2.282,27.714,3.261c7.336,0.978,22.497,1.793,22.497,1.793
				l1.135,1.346h-59.009V400.831z"/>
		</g>
		<g>
			<path style="fill:#FFFFFF;stroke:#263238;stroke-linecap:round;stroke-linejoin:round;stroke-miterlimit:10;" d="
				M198.135,393.169l2.771,2.771c0,0,5.38,0.978,6.847,0.815c1.467-0.163,2.445,0,2.445,1.141c0,1.141-1.304,2.119-3.913,2.935
				c-2.608,0.815-5.21,1.02-5.21,1.02h-13.701L198.135,393.169z"/>
			<path style="fill:#FFFFFF;stroke:#263238;stroke-linecap:round;stroke-linejoin:round;stroke-miterlimit:10;" d="
				M198.135,393.169c0,0-6.684-6.032-7.825-5.706c-1.141,0.326-5.38,14.835-4.076,14.998c1.304,0.163,1.956,0.489,3.097,0
				C190.473,401.972,198.135,393.169,198.135,393.169z"/>
			<path style="fill:#FFFFFF;stroke:#263238;stroke-linecap:round;stroke-linejoin:round;stroke-miterlimit:10;" d="M190.31,387.463
				c0,0-5.706-3.587-7.988-3.587c-2.282,0-3.261,3.587-2.934,5.543s0.163,13.042,1.467,13.205c1.304,0.163,3.587-0.652,3.587-0.652
				L190.31,387.463z"/>
			<path style="fill:#FFFFFF;stroke:#263238;stroke-linecap:round;stroke-linejoin:round;stroke-miterlimit:10;" d="M179.55,386.811
				c0,0-5.217,1.141-5.706,2.608s0.978,13.531,0.978,13.531s1.956-0.163,2.608-0.326c0.652-0.163,2.445-7.825,2.445-7.825
				L179.55,386.811z"/>
			<path style="fill:#FFFFFF;stroke:#263238;stroke-linecap:round;stroke-linejoin:round;stroke-miterlimit:10;" d="
				M173.518,390.886c0,0-4.239,1.956-4.239,3.424c0,1.467,1.304,7.988,2.119,8.803c0.815,0.815,3.424-0.163,3.424-0.163
				L173.518,390.886z"/>
		</g>
	</g>
</g>
</svg>
